<mxfile host="app.diagrams.net" modified="2023-05-26T04:52:52.946Z" agent="Mozilla/5.0 (Windows NT 10.0; Win64; x64) AppleWebKit/537.36 (KHTML, like Gecko) Chrome/113.0.0.0 Safari/537.36" etag="k0EoVwKdJi6guigkXxJW" version="21.3.4" type="device">
  <diagram name="페이지-1" id="vUcPsu6jvoZxZgd4bG2n">
    <mxGraphModel dx="1434" dy="731" grid="1" gridSize="10" guides="1" tooltips="1" connect="1" arrows="1" fold="1" page="1" pageScale="1" pageWidth="4681" pageHeight="3300" math="0" shadow="0">
      <root>
        <mxCell id="0" />
        <mxCell id="1" parent="0" />
        <mxCell id="lQd3kV6Saaj2vUExfUbM-7" style="rounded=0;orthogonalLoop=1;jettySize=auto;html=1;entryX=0.5;entryY=0;entryDx=0;entryDy=0;exitX=0.5;exitY=1;exitDx=0;exitDy=0;" edge="1" parent="1" source="lQd3kV6Saaj2vUExfUbM-1" target="lQd3kV6Saaj2vUExfUbM-2">
          <mxGeometry relative="1" as="geometry" />
        </mxCell>
        <mxCell id="lQd3kV6Saaj2vUExfUbM-8" style="edgeStyle=none;shape=connector;rounded=0;orthogonalLoop=1;jettySize=auto;html=1;entryX=0.5;entryY=0;entryDx=0;entryDy=0;labelBackgroundColor=default;strokeColor=default;fontFamily=Helvetica;fontSize=11;fontColor=default;endArrow=classic;exitX=0.5;exitY=1;exitDx=0;exitDy=0;" edge="1" parent="1" source="lQd3kV6Saaj2vUExfUbM-1" target="lQd3kV6Saaj2vUExfUbM-3">
          <mxGeometry relative="1" as="geometry" />
        </mxCell>
        <mxCell id="lQd3kV6Saaj2vUExfUbM-9" style="edgeStyle=none;shape=connector;rounded=0;orthogonalLoop=1;jettySize=auto;html=1;entryX=0.5;entryY=0;entryDx=0;entryDy=0;labelBackgroundColor=default;strokeColor=default;fontFamily=Helvetica;fontSize=11;fontColor=default;endArrow=classic;" edge="1" parent="1" source="lQd3kV6Saaj2vUExfUbM-1" target="lQd3kV6Saaj2vUExfUbM-4">
          <mxGeometry relative="1" as="geometry" />
        </mxCell>
        <mxCell id="lQd3kV6Saaj2vUExfUbM-10" style="edgeStyle=none;shape=connector;rounded=0;orthogonalLoop=1;jettySize=auto;html=1;entryX=0.5;entryY=0;entryDx=0;entryDy=0;labelBackgroundColor=default;strokeColor=default;fontFamily=Helvetica;fontSize=11;fontColor=default;endArrow=classic;exitX=0.5;exitY=1;exitDx=0;exitDy=0;" edge="1" parent="1" source="lQd3kV6Saaj2vUExfUbM-1" target="lQd3kV6Saaj2vUExfUbM-5">
          <mxGeometry relative="1" as="geometry" />
        </mxCell>
        <mxCell id="lQd3kV6Saaj2vUExfUbM-11" style="edgeStyle=none;shape=connector;rounded=0;orthogonalLoop=1;jettySize=auto;html=1;entryX=0.5;entryY=0;entryDx=0;entryDy=0;labelBackgroundColor=default;strokeColor=default;fontFamily=Helvetica;fontSize=11;fontColor=default;endArrow=classic;exitX=0.5;exitY=1;exitDx=0;exitDy=0;" edge="1" parent="1" source="lQd3kV6Saaj2vUExfUbM-1" target="lQd3kV6Saaj2vUExfUbM-6">
          <mxGeometry relative="1" as="geometry" />
        </mxCell>
        <mxCell id="lQd3kV6Saaj2vUExfUbM-1" value="메모장" style="rounded=1;arcSize=10;whiteSpace=wrap;html=1;align=center;" vertex="1" parent="1">
          <mxGeometry x="630" y="180" width="120" height="50" as="geometry" />
        </mxCell>
        <mxCell id="lQd3kV6Saaj2vUExfUbM-2" value="일련번호" style="ellipse;whiteSpace=wrap;html=1;align=center;fontStyle=4;" vertex="1" parent="1">
          <mxGeometry x="380" y="320" width="100" height="40" as="geometry" />
        </mxCell>
        <mxCell id="lQd3kV6Saaj2vUExfUbM-3" value="작성자" style="ellipse;whiteSpace=wrap;html=1;align=center;" vertex="1" parent="1">
          <mxGeometry x="510" y="320" width="100" height="40" as="geometry" />
        </mxCell>
        <mxCell id="lQd3kV6Saaj2vUExfUbM-4" value="작성일자" style="ellipse;whiteSpace=wrap;html=1;align=center;" vertex="1" parent="1">
          <mxGeometry x="640" y="320" width="100" height="40" as="geometry" />
        </mxCell>
        <mxCell id="lQd3kV6Saaj2vUExfUbM-5" value="제목" style="ellipse;whiteSpace=wrap;html=1;align=center;" vertex="1" parent="1">
          <mxGeometry x="770" y="320" width="100" height="40" as="geometry" />
        </mxCell>
        <mxCell id="lQd3kV6Saaj2vUExfUbM-6" value="내용" style="ellipse;whiteSpace=wrap;html=1;align=center;" vertex="1" parent="1">
          <mxGeometry x="900" y="320" width="100" height="40" as="geometry" />
        </mxCell>
      </root>
    </mxGraphModel>
  </diagram>
</mxfile>
